  0
SECTION
  2
BLOCKS
  0
ENDSEC
  0
SECTION
  2
ENTITIES
  0
LINE
  8
0
 10
-140.088
 20
110.309
 11
-140.243
 21
110.169
  0
LINE
  8
0
 10
-140.243
 20
110.169
 11
-140.366
 21
110
  0
LINE
  8
0
 10
-140.366
 20
110
 11
-140.451
 21
109.809
  0
LINE
  8
0
 10
-140.451
 20
109.809
 11
-140.495
 21
109.605
  0
LINE
  8
0
 10
-140.495
 20
109.605
 11
-140.495
 21
-109.605
  0
LINE
  8
0
 10
-140.495
 20
-109.605
 11
-140.451
 21
-109.809
  0
LINE
  8
0
 10
-140.451
 20
-109.809
 11
-140.366
 21
-110
  0
LINE
  8
0
 10
-140.366
 20
-110
 11
-140.243
 21
-110.169
  0
LINE
  8
0
 10
-140.243
 20
-110.169
 11
-140.088
 21
-110.309
  0
LINE
  8
0
 10
-140.088
 20
-110.309
 11
-139.907
 21
-110.414
  0
LINE
  8
0
 10
-139.907
 20
-110.414
 11
-139.708
 21
-110.478
  0
LINE
  8
0
 10
-139.708
 20
-110.478
 11
-139.5
 21
-110.5
  0
LINE
  8
0
 10
-139.5
 20
-110.5
 11
139.5
 21
-110.5
  0
LINE
  8
0
 10
139.5
 20
-110.5
 11
139.708
 21
-110.478
  0
LINE
  8
0
 10
139.708
 20
-110.478
 11
139.907
 21
-110.414
  0
LINE
  8
0
 10
139.907
 20
-110.414
 11
140.088
 21
-110.309
  0
LINE
  8
0
 10
140.088
 20
-110.309
 11
140.243
 21
-110.169
  0
LINE
  8
0
 10
140.243
 20
-110.169
 11
140.366
 21
-110
  0
LINE
  8
0
 10
140.366
 20
-110
 11
140.451
 21
-109.809
  0
LINE
  8
0
 10
140.451
 20
-109.809
 11
140.495
 21
-109.605
  0
LINE
  8
0
 10
140.495
 20
-109.605
 11
140.495
 21
109.605
  0
LINE
  8
0
 10
140.495
 20
109.605
 11
140.451
 21
109.809
  0
LINE
  8
0
 10
140.451
 20
109.809
 11
140.366
 21
110
  0
LINE
  8
0
 10
140.366
 20
110
 11
140.243
 21
110.169
  0
LINE
  8
0
 10
140.243
 20
110.169
 11
140.088
 21
110.309
  0
LINE
  8
0
 10
140.088
 20
110.309
 11
139.907
 21
110.414
  0
LINE
  8
0
 10
139.907
 20
110.414
 11
139.708
 21
110.478
  0
LINE
  8
0
 10
139.708
 20
110.478
 11
139.5
 21
110.5
  0
LINE
  8
0
 10
139.5
 20
110.5
 11
-139.5
 21
110.5
  0
LINE
  8
0
 10
-139.5
 20
110.5
 11
-139.708
 21
110.478
  0
LINE
  8
0
 10
-139.708
 20
110.478
 11
-139.907
 21
110.414
  0
LINE
  8
0
 10
-139.907
 20
110.414
 11
-140.088
 21
110.309
  0
ENDSEC
  0
SECTION
  2
OBJECTS
  0
DICTIONARY
  0
ENDSEC
  0
EOF
