%FSLAX45Y45*%
G04 Gerber Fmt 4.5, Leading zero omitted, Abs format (unit mm)*
G04 Created by KiCad (PCBNEW (5.1.8)-1) date 2021-03-05 20:41:20*
%MOMM*%
%LPD*%
G01*
G04 APERTURE LIST*
%TA.AperFunction,Profile*%
%ADD10C,0.200000*%
%TD*%
%ADD11C,0.200000*%
%ADD12C,0.300000*%
G04 APERTURE END LIST*
D10*
X1308100Y1062300D02*
X1290000Y1051800D01*
X29289500Y1062300D02*
X29269600Y1068700D01*
X29307600Y1051800D02*
X29289500Y1062300D01*
X29348300Y-20939600D02*
X29348300Y981400D01*
X29323100Y1037800D02*
X29307600Y1051800D01*
X29343900Y1001800D02*
X29335400Y1020900D01*
X29269600Y1068700D02*
X29248800Y1070900D01*
X29335400Y1020900D02*
X29323100Y1037800D01*
X29248800Y1070900D02*
X1348800Y1070900D01*
X29348300Y981400D02*
X29343900Y1001800D01*
X1328000Y1068700D02*
X1308100Y1062300D01*
X29343900Y-20960000D02*
X29348300Y-20939600D01*
X1348800Y1070900D02*
X1328000Y1068700D01*
X1274500Y-20996000D02*
X1290000Y-21010000D01*
X1249300Y981400D02*
X1249300Y-20939600D01*
X29307600Y-21010000D02*
X29323100Y-20996000D01*
X1262200Y-20979100D02*
X1274500Y-20996000D01*
X29323100Y-20996000D02*
X29335400Y-20979100D01*
X1290000Y1051800D02*
X1274500Y1037800D01*
X1253700Y1001800D02*
X1249300Y981400D01*
X29269600Y-21026900D02*
X29289500Y-21020500D01*
X1348800Y-21029100D02*
X29248800Y-21029100D01*
X1253700Y-20960000D02*
X1262200Y-20979100D01*
X1308100Y-21020500D02*
X1328000Y-21026900D01*
X1274500Y1037800D02*
X1262200Y1020900D01*
X1262200Y1020900D02*
X1253700Y1001800D01*
X29335400Y-20979100D02*
X29343900Y-20960000D01*
X29289500Y-21020500D02*
X29307600Y-21010000D01*
X29248800Y-21029100D02*
X29269600Y-21026900D01*
X1328000Y-21026900D02*
X1348800Y-21029100D01*
X1249300Y-20939600D02*
X1253700Y-20960000D01*
X1290000Y-21010000D02*
X1308100Y-21020500D01*
D11*
D12*
X1525728Y-21504814D02*
X1525728Y-21204814D01*
X1597157Y-21204814D01*
X1640014Y-21219100D01*
X1668586Y-21247672D01*
X1682871Y-21276243D01*
X1697157Y-21333386D01*
X1697157Y-21376243D01*
X1682871Y-21433386D01*
X1668586Y-21461957D01*
X1640014Y-21490529D01*
X1597157Y-21504814D01*
X1525728Y-21504814D01*
X1825728Y-21504814D02*
X1825728Y-21304814D01*
X1825728Y-21361957D02*
X1840014Y-21333386D01*
X1854300Y-21319100D01*
X1882871Y-21304814D01*
X1911443Y-21304814D01*
X2011443Y-21504814D02*
X2011443Y-21304814D01*
X2011443Y-21204814D02*
X1997157Y-21219100D01*
X2011443Y-21233386D01*
X2025728Y-21219100D01*
X2011443Y-21204814D01*
X2011443Y-21233386D01*
X2197157Y-21504814D02*
X2168586Y-21490529D01*
X2154300Y-21461957D01*
X2154300Y-21204814D01*
X2354300Y-21504814D02*
X2325728Y-21490529D01*
X2311443Y-21461957D01*
X2311443Y-21204814D01*
X2697157Y-21504814D02*
X2697157Y-21204814D01*
X2797157Y-21419100D01*
X2897157Y-21204814D01*
X2897157Y-21504814D01*
X3168586Y-21504814D02*
X3168586Y-21347672D01*
X3154300Y-21319100D01*
X3125728Y-21304814D01*
X3068586Y-21304814D01*
X3040014Y-21319100D01*
X3168586Y-21490529D02*
X3140014Y-21504814D01*
X3068586Y-21504814D01*
X3040014Y-21490529D01*
X3025728Y-21461957D01*
X3025728Y-21433386D01*
X3040014Y-21404814D01*
X3068586Y-21390529D01*
X3140014Y-21390529D01*
X3168586Y-21376243D01*
X3311443Y-21304814D02*
X3311443Y-21604814D01*
X3311443Y-21319100D02*
X3340014Y-21304814D01*
X3397157Y-21304814D01*
X3425728Y-21319100D01*
X3440014Y-21333386D01*
X3454300Y-21361957D01*
X3454300Y-21447672D01*
X3440014Y-21476243D01*
X3425728Y-21490529D01*
X3397157Y-21504814D01*
X3340014Y-21504814D01*
X3311443Y-21490529D01*
X3582871Y-21476243D02*
X3597157Y-21490529D01*
X3582871Y-21504814D01*
X3568586Y-21490529D01*
X3582871Y-21476243D01*
X3582871Y-21504814D01*
X3582871Y-21319100D02*
X3597157Y-21333386D01*
X3582871Y-21347672D01*
X3568586Y-21333386D01*
X3582871Y-21319100D01*
X3582871Y-21347672D01*
M02*
