G04 #@! TF.GenerationSoftware,KiCad,Pcbnew,(5.1.8)-1*
G04 #@! TF.CreationDate,2021-03-05T20:40:41-08:00*
G04 #@! TF.ProjectId,anglerfish,616e676c-6572-4666-9973-682e6b696361,rev?*
G04 #@! TF.SameCoordinates,Original*
G04 #@! TF.FileFunction,Profile,NP*
%FSLAX46Y46*%
G04 Gerber Fmt 4.6, Leading zero omitted, Abs format (unit mm)*
G04 Created by KiCad (PCBNEW (5.1.8)-1) date 2021-03-05 20:40:41*
%MOMM*%
%LPD*%
G01*
G04 APERTURE LIST*
G04 #@! TA.AperFunction,Profile*
%ADD10C,0.200000*%
G04 #@! TD*
G04 APERTURE END LIST*
D10*
X13081000Y10623000D02*
X12900000Y10518000D01*
X292895000Y10623000D02*
X292696000Y10687000D01*
X293076000Y10518000D02*
X292895000Y10623000D01*
X293483000Y-209396000D02*
X293483000Y9814000D01*
X293231000Y10378000D02*
X293076000Y10518000D01*
X293439000Y10018000D02*
X293354000Y10209000D01*
X292696000Y10687000D02*
X292488000Y10709000D01*
X293354000Y10209000D02*
X293231000Y10378000D01*
X292488000Y10709000D02*
X13488000Y10709000D01*
X293483000Y9814000D02*
X293439000Y10018000D01*
X13280000Y10687000D02*
X13081000Y10623000D01*
X293439000Y-209600000D02*
X293483000Y-209396000D01*
X13488000Y10709000D02*
X13280000Y10687000D01*
X12745000Y-209960000D02*
X12900000Y-210100000D01*
X12493000Y9814000D02*
X12493000Y-209396000D01*
X293076000Y-210100000D02*
X293231000Y-209960000D01*
X12622000Y-209791000D02*
X12745000Y-209960000D01*
X293231000Y-209960000D02*
X293354000Y-209791000D01*
X12900000Y10518000D02*
X12745000Y10378000D01*
X12537000Y10018000D02*
X12493000Y9814000D01*
X292696000Y-210269000D02*
X292895000Y-210205000D01*
X13488000Y-210291000D02*
X292488000Y-210291000D01*
X12537000Y-209600000D02*
X12622000Y-209791000D01*
X13081000Y-210205000D02*
X13280000Y-210269000D01*
X12745000Y10378000D02*
X12622000Y10209000D01*
X12622000Y10209000D02*
X12537000Y10018000D01*
X293354000Y-209791000D02*
X293439000Y-209600000D01*
X292895000Y-210205000D02*
X293076000Y-210100000D01*
X292488000Y-210291000D02*
X292696000Y-210269000D01*
X13280000Y-210269000D02*
X13488000Y-210291000D01*
X12493000Y-209396000D02*
X12537000Y-209600000D01*
X12900000Y-210100000D02*
X13081000Y-210205000D01*
M02*
