G04 #@! TF.GenerationSoftware,KiCad,Pcbnew,(5.1.8)-1*
G04 #@! TF.CreationDate,2021-03-05T20:40:41-08:00*
G04 #@! TF.ProjectId,anglerfish,616e676c-6572-4666-9973-682e6b696361,rev?*
G04 #@! TF.SameCoordinates,Original*
G04 #@! TF.FileFunction,Soldermask,Top*
G04 #@! TF.FilePolarity,Negative*
%FSLAX46Y46*%
G04 Gerber Fmt 4.6, Leading zero omitted, Abs format (unit mm)*
G04 Created by KiCad (PCBNEW (5.1.8)-1) date 2021-03-05 20:40:41*
%MOMM*%
%LPD*%
G01*
G04 APERTURE LIST*
%ADD10R,0.800000X0.500000*%
%ADD11R,0.800000X0.300000*%
%ADD12R,0.500000X1.000000*%
%ADD13R,0.500000X1.480000*%
G04 APERTURE END LIST*
D10*
X58550000Y-54330000D03*
D11*
X58550000Y-55230000D03*
D10*
X58550000Y-56130000D03*
D11*
X60250000Y-55230000D03*
D10*
X60250000Y-56130000D03*
X60250000Y-54330000D03*
D12*
X59400000Y-54400000D03*
D13*
X59400000Y-55840000D03*
G36*
G01*
X115127081Y-99880457D02*
X114802887Y-99762460D01*
G75*
G02*
X114714730Y-99573407I50448J138605D01*
G01*
X114815626Y-99296198D01*
G75*
G02*
X115004679Y-99208041I138605J-50448D01*
G01*
X115328873Y-99326038D01*
G75*
G02*
X115417030Y-99515091I-50448J-138605D01*
G01*
X115316134Y-99792300D01*
G75*
G02*
X115127081Y-99880457I-138605J50448D01*
G01*
G37*
G36*
G01*
X114795321Y-100791959D02*
X114471127Y-100673962D01*
G75*
G02*
X114382970Y-100484909I50448J138605D01*
G01*
X114483866Y-100207700D01*
G75*
G02*
X114672919Y-100119543I138605J-50448D01*
G01*
X114997113Y-100237540D01*
G75*
G02*
X115085270Y-100426593I-50448J-138605D01*
G01*
X114984374Y-100703802D01*
G75*
G02*
X114795321Y-100791959I-138605J50448D01*
G01*
G37*
G36*
G01*
X111000000Y-87025000D02*
X111000000Y-86875000D01*
G75*
G02*
X111075000Y-86800000I75000J0D01*
G01*
X112100000Y-86800000D01*
G75*
G02*
X112175000Y-86875000I0J-75000D01*
G01*
X112175000Y-87025000D01*
G75*
G02*
X112100000Y-87100000I-75000J0D01*
G01*
X111075000Y-87100000D01*
G75*
G02*
X111000000Y-87025000I0J75000D01*
G01*
G37*
G36*
G01*
X111000000Y-87675000D02*
X111000000Y-87525000D01*
G75*
G02*
X111075000Y-87450000I75000J0D01*
G01*
X112100000Y-87450000D01*
G75*
G02*
X112175000Y-87525000I0J-75000D01*
G01*
X112175000Y-87675000D01*
G75*
G02*
X112100000Y-87750000I-75000J0D01*
G01*
X111075000Y-87750000D01*
G75*
G02*
X111000000Y-87675000I0J75000D01*
G01*
G37*
G36*
G01*
X111000000Y-88325000D02*
X111000000Y-88175000D01*
G75*
G02*
X111075000Y-88100000I75000J0D01*
G01*
X112100000Y-88100000D01*
G75*
G02*
X112175000Y-88175000I0J-75000D01*
G01*
X112175000Y-88325000D01*
G75*
G02*
X112100000Y-88400000I-75000J0D01*
G01*
X111075000Y-88400000D01*
G75*
G02*
X111000000Y-88325000I0J75000D01*
G01*
G37*
G36*
G01*
X109425000Y-88325000D02*
X109425000Y-88175000D01*
G75*
G02*
X109500000Y-88100000I75000J0D01*
G01*
X110525000Y-88100000D01*
G75*
G02*
X110600000Y-88175000I0J-75000D01*
G01*
X110600000Y-88325000D01*
G75*
G02*
X110525000Y-88400000I-75000J0D01*
G01*
X109500000Y-88400000D01*
G75*
G02*
X109425000Y-88325000I0J75000D01*
G01*
G37*
G36*
G01*
X109425000Y-87675000D02*
X109425000Y-87525000D01*
G75*
G02*
X109500000Y-87450000I75000J0D01*
G01*
X110525000Y-87450000D01*
G75*
G02*
X110600000Y-87525000I0J-75000D01*
G01*
X110600000Y-87675000D01*
G75*
G02*
X110525000Y-87750000I-75000J0D01*
G01*
X109500000Y-87750000D01*
G75*
G02*
X109425000Y-87675000I0J75000D01*
G01*
G37*
G36*
G01*
X109425000Y-87025000D02*
X109425000Y-86875000D01*
G75*
G02*
X109500000Y-86800000I75000J0D01*
G01*
X110525000Y-86800000D01*
G75*
G02*
X110600000Y-86875000I0J-75000D01*
G01*
X110600000Y-87025000D01*
G75*
G02*
X110525000Y-87100000I-75000J0D01*
G01*
X109500000Y-87100000D01*
G75*
G02*
X109425000Y-87025000I0J75000D01*
G01*
G37*
G36*
G01*
X140490000Y-138772500D02*
X140490000Y-138427500D01*
G75*
G02*
X140637500Y-138280000I147500J0D01*
G01*
X140932500Y-138280000D01*
G75*
G02*
X141080000Y-138427500I0J-147500D01*
G01*
X141080000Y-138772500D01*
G75*
G02*
X140932500Y-138920000I-147500J0D01*
G01*
X140637500Y-138920000D01*
G75*
G02*
X140490000Y-138772500I0J147500D01*
G01*
G37*
G36*
G01*
X139520000Y-138772500D02*
X139520000Y-138427500D01*
G75*
G02*
X139667500Y-138280000I147500J0D01*
G01*
X139962500Y-138280000D01*
G75*
G02*
X140110000Y-138427500I0J-147500D01*
G01*
X140110000Y-138772500D01*
G75*
G02*
X139962500Y-138920000I-147500J0D01*
G01*
X139667500Y-138920000D01*
G75*
G02*
X139520000Y-138772500I0J147500D01*
G01*
G37*
G36*
G01*
X143190000Y-132072500D02*
X143190000Y-131727500D01*
G75*
G02*
X143337500Y-131580000I147500J0D01*
G01*
X143632500Y-131580000D01*
G75*
G02*
X143780000Y-131727500I0J-147500D01*
G01*
X143780000Y-132072500D01*
G75*
G02*
X143632500Y-132220000I-147500J0D01*
G01*
X143337500Y-132220000D01*
G75*
G02*
X143190000Y-132072500I0J147500D01*
G01*
G37*
G36*
G01*
X142220000Y-132072500D02*
X142220000Y-131727500D01*
G75*
G02*
X142367500Y-131580000I147500J0D01*
G01*
X142662500Y-131580000D01*
G75*
G02*
X142810000Y-131727500I0J-147500D01*
G01*
X142810000Y-132072500D01*
G75*
G02*
X142662500Y-132220000I-147500J0D01*
G01*
X142367500Y-132220000D01*
G75*
G02*
X142220000Y-132072500I0J147500D01*
G01*
G37*
G36*
G01*
X144090000Y-125972500D02*
X144090000Y-125627500D01*
G75*
G02*
X144237500Y-125480000I147500J0D01*
G01*
X144532500Y-125480000D01*
G75*
G02*
X144680000Y-125627500I0J-147500D01*
G01*
X144680000Y-125972500D01*
G75*
G02*
X144532500Y-126120000I-147500J0D01*
G01*
X144237500Y-126120000D01*
G75*
G02*
X144090000Y-125972500I0J147500D01*
G01*
G37*
G36*
G01*
X143120000Y-125972500D02*
X143120000Y-125627500D01*
G75*
G02*
X143267500Y-125480000I147500J0D01*
G01*
X143562500Y-125480000D01*
G75*
G02*
X143710000Y-125627500I0J-147500D01*
G01*
X143710000Y-125972500D01*
G75*
G02*
X143562500Y-126120000I-147500J0D01*
G01*
X143267500Y-126120000D01*
G75*
G02*
X143120000Y-125972500I0J147500D01*
G01*
G37*
G36*
G01*
X142890000Y-119572500D02*
X142890000Y-119227500D01*
G75*
G02*
X143037500Y-119080000I147500J0D01*
G01*
X143332500Y-119080000D01*
G75*
G02*
X143480000Y-119227500I0J-147500D01*
G01*
X143480000Y-119572500D01*
G75*
G02*
X143332500Y-119720000I-147500J0D01*
G01*
X143037500Y-119720000D01*
G75*
G02*
X142890000Y-119572500I0J147500D01*
G01*
G37*
G36*
G01*
X141920000Y-119572500D02*
X141920000Y-119227500D01*
G75*
G02*
X142067500Y-119080000I147500J0D01*
G01*
X142362500Y-119080000D01*
G75*
G02*
X142510000Y-119227500I0J-147500D01*
G01*
X142510000Y-119572500D01*
G75*
G02*
X142362500Y-119720000I-147500J0D01*
G01*
X142067500Y-119720000D01*
G75*
G02*
X141920000Y-119572500I0J147500D01*
G01*
G37*
G36*
G01*
X143290000Y-112672500D02*
X143290000Y-112327500D01*
G75*
G02*
X143437500Y-112180000I147500J0D01*
G01*
X143732500Y-112180000D01*
G75*
G02*
X143880000Y-112327500I0J-147500D01*
G01*
X143880000Y-112672500D01*
G75*
G02*
X143732500Y-112820000I-147500J0D01*
G01*
X143437500Y-112820000D01*
G75*
G02*
X143290000Y-112672500I0J147500D01*
G01*
G37*
G36*
G01*
X142320000Y-112672500D02*
X142320000Y-112327500D01*
G75*
G02*
X142467500Y-112180000I147500J0D01*
G01*
X142762500Y-112180000D01*
G75*
G02*
X142910000Y-112327500I0J-147500D01*
G01*
X142910000Y-112672500D01*
G75*
G02*
X142762500Y-112820000I-147500J0D01*
G01*
X142467500Y-112820000D01*
G75*
G02*
X142320000Y-112672500I0J147500D01*
G01*
G37*
G36*
G01*
X110790000Y-110172500D02*
X110790000Y-109827500D01*
G75*
G02*
X110937500Y-109680000I147500J0D01*
G01*
X111232500Y-109680000D01*
G75*
G02*
X111380000Y-109827500I0J-147500D01*
G01*
X111380000Y-110172500D01*
G75*
G02*
X111232500Y-110320000I-147500J0D01*
G01*
X110937500Y-110320000D01*
G75*
G02*
X110790000Y-110172500I0J147500D01*
G01*
G37*
G36*
G01*
X109820000Y-110172500D02*
X109820000Y-109827500D01*
G75*
G02*
X109967500Y-109680000I147500J0D01*
G01*
X110262500Y-109680000D01*
G75*
G02*
X110410000Y-109827500I0J-147500D01*
G01*
X110410000Y-110172500D01*
G75*
G02*
X110262500Y-110320000I-147500J0D01*
G01*
X109967500Y-110320000D01*
G75*
G02*
X109820000Y-110172500I0J147500D01*
G01*
G37*
G36*
G01*
X111405000Y-115172500D02*
X111405000Y-114827500D01*
G75*
G02*
X111552500Y-114680000I147500J0D01*
G01*
X111847500Y-114680000D01*
G75*
G02*
X111995000Y-114827500I0J-147500D01*
G01*
X111995000Y-115172500D01*
G75*
G02*
X111847500Y-115320000I-147500J0D01*
G01*
X111552500Y-115320000D01*
G75*
G02*
X111405000Y-115172500I0J147500D01*
G01*
G37*
G36*
G01*
X110435000Y-115172500D02*
X110435000Y-114827500D01*
G75*
G02*
X110582500Y-114680000I147500J0D01*
G01*
X110877500Y-114680000D01*
G75*
G02*
X111025000Y-114827500I0J-147500D01*
G01*
X111025000Y-115172500D01*
G75*
G02*
X110877500Y-115320000I-147500J0D01*
G01*
X110582500Y-115320000D01*
G75*
G02*
X110435000Y-115172500I0J147500D01*
G01*
G37*
G36*
G01*
X112705000Y-121272500D02*
X112705000Y-120927500D01*
G75*
G02*
X112852500Y-120780000I147500J0D01*
G01*
X113147500Y-120780000D01*
G75*
G02*
X113295000Y-120927500I0J-147500D01*
G01*
X113295000Y-121272500D01*
G75*
G02*
X113147500Y-121420000I-147500J0D01*
G01*
X112852500Y-121420000D01*
G75*
G02*
X112705000Y-121272500I0J147500D01*
G01*
G37*
G36*
G01*
X111735000Y-121272500D02*
X111735000Y-120927500D01*
G75*
G02*
X111882500Y-120780000I147500J0D01*
G01*
X112177500Y-120780000D01*
G75*
G02*
X112325000Y-120927500I0J-147500D01*
G01*
X112325000Y-121272500D01*
G75*
G02*
X112177500Y-121420000I-147500J0D01*
G01*
X111882500Y-121420000D01*
G75*
G02*
X111735000Y-121272500I0J147500D01*
G01*
G37*
G36*
G01*
X114290000Y-126772500D02*
X114290000Y-126427500D01*
G75*
G02*
X114437500Y-126280000I147500J0D01*
G01*
X114732500Y-126280000D01*
G75*
G02*
X114880000Y-126427500I0J-147500D01*
G01*
X114880000Y-126772500D01*
G75*
G02*
X114732500Y-126920000I-147500J0D01*
G01*
X114437500Y-126920000D01*
G75*
G02*
X114290000Y-126772500I0J147500D01*
G01*
G37*
G36*
G01*
X113320000Y-126772500D02*
X113320000Y-126427500D01*
G75*
G02*
X113467500Y-126280000I147500J0D01*
G01*
X113762500Y-126280000D01*
G75*
G02*
X113910000Y-126427500I0J-147500D01*
G01*
X113910000Y-126772500D01*
G75*
G02*
X113762500Y-126920000I-147500J0D01*
G01*
X113467500Y-126920000D01*
G75*
G02*
X113320000Y-126772500I0J147500D01*
G01*
G37*
G36*
G01*
X115205000Y-131872500D02*
X115205000Y-131527500D01*
G75*
G02*
X115352500Y-131380000I147500J0D01*
G01*
X115647500Y-131380000D01*
G75*
G02*
X115795000Y-131527500I0J-147500D01*
G01*
X115795000Y-131872500D01*
G75*
G02*
X115647500Y-132020000I-147500J0D01*
G01*
X115352500Y-132020000D01*
G75*
G02*
X115205000Y-131872500I0J147500D01*
G01*
G37*
G36*
G01*
X114235000Y-131872500D02*
X114235000Y-131527500D01*
G75*
G02*
X114382500Y-131380000I147500J0D01*
G01*
X114677500Y-131380000D01*
G75*
G02*
X114825000Y-131527500I0J-147500D01*
G01*
X114825000Y-131872500D01*
G75*
G02*
X114677500Y-132020000I-147500J0D01*
G01*
X114382500Y-132020000D01*
G75*
G02*
X114235000Y-131872500I0J147500D01*
G01*
G37*
G36*
G01*
X115105000Y-138272500D02*
X115105000Y-137927500D01*
G75*
G02*
X115252500Y-137780000I147500J0D01*
G01*
X115547500Y-137780000D01*
G75*
G02*
X115695000Y-137927500I0J-147500D01*
G01*
X115695000Y-138272500D01*
G75*
G02*
X115547500Y-138420000I-147500J0D01*
G01*
X115252500Y-138420000D01*
G75*
G02*
X115105000Y-138272500I0J147500D01*
G01*
G37*
G36*
G01*
X114135000Y-138272500D02*
X114135000Y-137927500D01*
G75*
G02*
X114282500Y-137780000I147500J0D01*
G01*
X114577500Y-137780000D01*
G75*
G02*
X114725000Y-137927500I0J-147500D01*
G01*
X114725000Y-138272500D01*
G75*
G02*
X114577500Y-138420000I-147500J0D01*
G01*
X114282500Y-138420000D01*
G75*
G02*
X114135000Y-138272500I0J147500D01*
G01*
G37*
G36*
G01*
X116095000Y-144472500D02*
X116095000Y-144127500D01*
G75*
G02*
X116242500Y-143980000I147500J0D01*
G01*
X116537500Y-143980000D01*
G75*
G02*
X116685000Y-144127500I0J-147500D01*
G01*
X116685000Y-144472500D01*
G75*
G02*
X116537500Y-144620000I-147500J0D01*
G01*
X116242500Y-144620000D01*
G75*
G02*
X116095000Y-144472500I0J147500D01*
G01*
G37*
G36*
G01*
X115125000Y-144472500D02*
X115125000Y-144127500D01*
G75*
G02*
X115272500Y-143980000I147500J0D01*
G01*
X115567500Y-143980000D01*
G75*
G02*
X115715000Y-144127500I0J-147500D01*
G01*
X115715000Y-144472500D01*
G75*
G02*
X115567500Y-144620000I-147500J0D01*
G01*
X115272500Y-144620000D01*
G75*
G02*
X115125000Y-144472500I0J147500D01*
G01*
G37*
G36*
G01*
X115250000Y-150962500D02*
X115250000Y-150617500D01*
G75*
G02*
X115397500Y-150470000I147500J0D01*
G01*
X115692500Y-150470000D01*
G75*
G02*
X115840000Y-150617500I0J-147500D01*
G01*
X115840000Y-150962500D01*
G75*
G02*
X115692500Y-151110000I-147500J0D01*
G01*
X115397500Y-151110000D01*
G75*
G02*
X115250000Y-150962500I0J147500D01*
G01*
G37*
G36*
G01*
X114280000Y-150962500D02*
X114280000Y-150617500D01*
G75*
G02*
X114427500Y-150470000I147500J0D01*
G01*
X114722500Y-150470000D01*
G75*
G02*
X114870000Y-150617500I0J-147500D01*
G01*
X114870000Y-150962500D01*
G75*
G02*
X114722500Y-151110000I-147500J0D01*
G01*
X114427500Y-151110000D01*
G75*
G02*
X114280000Y-150962500I0J147500D01*
G01*
G37*
G36*
G01*
X127090000Y-158172500D02*
X127090000Y-157827500D01*
G75*
G02*
X127237500Y-157680000I147500J0D01*
G01*
X127532500Y-157680000D01*
G75*
G02*
X127680000Y-157827500I0J-147500D01*
G01*
X127680000Y-158172500D01*
G75*
G02*
X127532500Y-158320000I-147500J0D01*
G01*
X127237500Y-158320000D01*
G75*
G02*
X127090000Y-158172500I0J147500D01*
G01*
G37*
G36*
G01*
X126120000Y-158172500D02*
X126120000Y-157827500D01*
G75*
G02*
X126267500Y-157680000I147500J0D01*
G01*
X126562500Y-157680000D01*
G75*
G02*
X126710000Y-157827500I0J-147500D01*
G01*
X126710000Y-158172500D01*
G75*
G02*
X126562500Y-158320000I-147500J0D01*
G01*
X126267500Y-158320000D01*
G75*
G02*
X126120000Y-158172500I0J147500D01*
G01*
G37*
G36*
G01*
X130290000Y-151672500D02*
X130290000Y-151327500D01*
G75*
G02*
X130437500Y-151180000I147500J0D01*
G01*
X130732500Y-151180000D01*
G75*
G02*
X130880000Y-151327500I0J-147500D01*
G01*
X130880000Y-151672500D01*
G75*
G02*
X130732500Y-151820000I-147500J0D01*
G01*
X130437500Y-151820000D01*
G75*
G02*
X130290000Y-151672500I0J147500D01*
G01*
G37*
G36*
G01*
X129320000Y-151672500D02*
X129320000Y-151327500D01*
G75*
G02*
X129467500Y-151180000I147500J0D01*
G01*
X129762500Y-151180000D01*
G75*
G02*
X129910000Y-151327500I0J-147500D01*
G01*
X129910000Y-151672500D01*
G75*
G02*
X129762500Y-151820000I-147500J0D01*
G01*
X129467500Y-151820000D01*
G75*
G02*
X129320000Y-151672500I0J147500D01*
G01*
G37*
G36*
G01*
X130990000Y-143872500D02*
X130990000Y-143527500D01*
G75*
G02*
X131137500Y-143380000I147500J0D01*
G01*
X131432500Y-143380000D01*
G75*
G02*
X131580000Y-143527500I0J-147500D01*
G01*
X131580000Y-143872500D01*
G75*
G02*
X131432500Y-144020000I-147500J0D01*
G01*
X131137500Y-144020000D01*
G75*
G02*
X130990000Y-143872500I0J147500D01*
G01*
G37*
G36*
G01*
X130020000Y-143872500D02*
X130020000Y-143527500D01*
G75*
G02*
X130167500Y-143380000I147500J0D01*
G01*
X130462500Y-143380000D01*
G75*
G02*
X130610000Y-143527500I0J-147500D01*
G01*
X130610000Y-143872500D01*
G75*
G02*
X130462500Y-144020000I-147500J0D01*
G01*
X130167500Y-144020000D01*
G75*
G02*
X130020000Y-143872500I0J147500D01*
G01*
G37*
G36*
G01*
X133690000Y-136772500D02*
X133690000Y-136427500D01*
G75*
G02*
X133837500Y-136280000I147500J0D01*
G01*
X134132500Y-136280000D01*
G75*
G02*
X134280000Y-136427500I0J-147500D01*
G01*
X134280000Y-136772500D01*
G75*
G02*
X134132500Y-136920000I-147500J0D01*
G01*
X133837500Y-136920000D01*
G75*
G02*
X133690000Y-136772500I0J147500D01*
G01*
G37*
G36*
G01*
X132720000Y-136772500D02*
X132720000Y-136427500D01*
G75*
G02*
X132867500Y-136280000I147500J0D01*
G01*
X133162500Y-136280000D01*
G75*
G02*
X133310000Y-136427500I0J-147500D01*
G01*
X133310000Y-136772500D01*
G75*
G02*
X133162500Y-136920000I-147500J0D01*
G01*
X132867500Y-136920000D01*
G75*
G02*
X132720000Y-136772500I0J147500D01*
G01*
G37*
G36*
G01*
X134390000Y-130572500D02*
X134390000Y-130227500D01*
G75*
G02*
X134537500Y-130080000I147500J0D01*
G01*
X134832500Y-130080000D01*
G75*
G02*
X134980000Y-130227500I0J-147500D01*
G01*
X134980000Y-130572500D01*
G75*
G02*
X134832500Y-130720000I-147500J0D01*
G01*
X134537500Y-130720000D01*
G75*
G02*
X134390000Y-130572500I0J147500D01*
G01*
G37*
G36*
G01*
X133420000Y-130572500D02*
X133420000Y-130227500D01*
G75*
G02*
X133567500Y-130080000I147500J0D01*
G01*
X133862500Y-130080000D01*
G75*
G02*
X134010000Y-130227500I0J-147500D01*
G01*
X134010000Y-130572500D01*
G75*
G02*
X133862500Y-130720000I-147500J0D01*
G01*
X133567500Y-130720000D01*
G75*
G02*
X133420000Y-130572500I0J147500D01*
G01*
G37*
G36*
G01*
X135090000Y-124472500D02*
X135090000Y-124127500D01*
G75*
G02*
X135237500Y-123980000I147500J0D01*
G01*
X135532500Y-123980000D01*
G75*
G02*
X135680000Y-124127500I0J-147500D01*
G01*
X135680000Y-124472500D01*
G75*
G02*
X135532500Y-124620000I-147500J0D01*
G01*
X135237500Y-124620000D01*
G75*
G02*
X135090000Y-124472500I0J147500D01*
G01*
G37*
G36*
G01*
X134120000Y-124472500D02*
X134120000Y-124127500D01*
G75*
G02*
X134267500Y-123980000I147500J0D01*
G01*
X134562500Y-123980000D01*
G75*
G02*
X134710000Y-124127500I0J-147500D01*
G01*
X134710000Y-124472500D01*
G75*
G02*
X134562500Y-124620000I-147500J0D01*
G01*
X134267500Y-124620000D01*
G75*
G02*
X134120000Y-124472500I0J147500D01*
G01*
G37*
G36*
G01*
X135875000Y-119072500D02*
X135875000Y-118727500D01*
G75*
G02*
X136022500Y-118580000I147500J0D01*
G01*
X136317500Y-118580000D01*
G75*
G02*
X136465000Y-118727500I0J-147500D01*
G01*
X136465000Y-119072500D01*
G75*
G02*
X136317500Y-119220000I-147500J0D01*
G01*
X136022500Y-119220000D01*
G75*
G02*
X135875000Y-119072500I0J147500D01*
G01*
G37*
G36*
G01*
X134905000Y-119072500D02*
X134905000Y-118727500D01*
G75*
G02*
X135052500Y-118580000I147500J0D01*
G01*
X135347500Y-118580000D01*
G75*
G02*
X135495000Y-118727500I0J-147500D01*
G01*
X135495000Y-119072500D01*
G75*
G02*
X135347500Y-119220000I-147500J0D01*
G01*
X135052500Y-119220000D01*
G75*
G02*
X134905000Y-119072500I0J147500D01*
G01*
G37*
G36*
G01*
X135190000Y-114672500D02*
X135190000Y-114327500D01*
G75*
G02*
X135337500Y-114180000I147500J0D01*
G01*
X135632500Y-114180000D01*
G75*
G02*
X135780000Y-114327500I0J-147500D01*
G01*
X135780000Y-114672500D01*
G75*
G02*
X135632500Y-114820000I-147500J0D01*
G01*
X135337500Y-114820000D01*
G75*
G02*
X135190000Y-114672500I0J147500D01*
G01*
G37*
G36*
G01*
X134220000Y-114672500D02*
X134220000Y-114327500D01*
G75*
G02*
X134367500Y-114180000I147500J0D01*
G01*
X134662500Y-114180000D01*
G75*
G02*
X134810000Y-114327500I0J-147500D01*
G01*
X134810000Y-114672500D01*
G75*
G02*
X134662500Y-114820000I-147500J0D01*
G01*
X134367500Y-114820000D01*
G75*
G02*
X134220000Y-114672500I0J147500D01*
G01*
G37*
G36*
G01*
X134690000Y-109672500D02*
X134690000Y-109327500D01*
G75*
G02*
X134837500Y-109180000I147500J0D01*
G01*
X135132500Y-109180000D01*
G75*
G02*
X135280000Y-109327500I0J-147500D01*
G01*
X135280000Y-109672500D01*
G75*
G02*
X135132500Y-109820000I-147500J0D01*
G01*
X134837500Y-109820000D01*
G75*
G02*
X134690000Y-109672500I0J147500D01*
G01*
G37*
G36*
G01*
X133720000Y-109672500D02*
X133720000Y-109327500D01*
G75*
G02*
X133867500Y-109180000I147500J0D01*
G01*
X134162500Y-109180000D01*
G75*
G02*
X134310000Y-109327500I0J-147500D01*
G01*
X134310000Y-109672500D01*
G75*
G02*
X134162500Y-109820000I-147500J0D01*
G01*
X133867500Y-109820000D01*
G75*
G02*
X133720000Y-109672500I0J147500D01*
G01*
G37*
G36*
G01*
X133290000Y-103772500D02*
X133290000Y-103427500D01*
G75*
G02*
X133437500Y-103280000I147500J0D01*
G01*
X133732500Y-103280000D01*
G75*
G02*
X133880000Y-103427500I0J-147500D01*
G01*
X133880000Y-103772500D01*
G75*
G02*
X133732500Y-103920000I-147500J0D01*
G01*
X133437500Y-103920000D01*
G75*
G02*
X133290000Y-103772500I0J147500D01*
G01*
G37*
G36*
G01*
X132320000Y-103772500D02*
X132320000Y-103427500D01*
G75*
G02*
X132467500Y-103280000I147500J0D01*
G01*
X132762500Y-103280000D01*
G75*
G02*
X132910000Y-103427500I0J-147500D01*
G01*
X132910000Y-103772500D01*
G75*
G02*
X132762500Y-103920000I-147500J0D01*
G01*
X132467500Y-103920000D01*
G75*
G02*
X132320000Y-103772500I0J147500D01*
G01*
G37*
G36*
G01*
X131690000Y-98772500D02*
X131690000Y-98427500D01*
G75*
G02*
X131837500Y-98280000I147500J0D01*
G01*
X132132500Y-98280000D01*
G75*
G02*
X132280000Y-98427500I0J-147500D01*
G01*
X132280000Y-98772500D01*
G75*
G02*
X132132500Y-98920000I-147500J0D01*
G01*
X131837500Y-98920000D01*
G75*
G02*
X131690000Y-98772500I0J147500D01*
G01*
G37*
G36*
G01*
X130720000Y-98772500D02*
X130720000Y-98427500D01*
G75*
G02*
X130867500Y-98280000I147500J0D01*
G01*
X131162500Y-98280000D01*
G75*
G02*
X131310000Y-98427500I0J-147500D01*
G01*
X131310000Y-98772500D01*
G75*
G02*
X131162500Y-98920000I-147500J0D01*
G01*
X130867500Y-98920000D01*
G75*
G02*
X130720000Y-98772500I0J147500D01*
G01*
G37*
G36*
G01*
X129390000Y-91972500D02*
X129390000Y-91627500D01*
G75*
G02*
X129537500Y-91480000I147500J0D01*
G01*
X129832500Y-91480000D01*
G75*
G02*
X129980000Y-91627500I0J-147500D01*
G01*
X129980000Y-91972500D01*
G75*
G02*
X129832500Y-92120000I-147500J0D01*
G01*
X129537500Y-92120000D01*
G75*
G02*
X129390000Y-91972500I0J147500D01*
G01*
G37*
G36*
G01*
X128420000Y-91972500D02*
X128420000Y-91627500D01*
G75*
G02*
X128567500Y-91480000I147500J0D01*
G01*
X128862500Y-91480000D01*
G75*
G02*
X129010000Y-91627500I0J-147500D01*
G01*
X129010000Y-91972500D01*
G75*
G02*
X128862500Y-92120000I-147500J0D01*
G01*
X128567500Y-92120000D01*
G75*
G02*
X128420000Y-91972500I0J147500D01*
G01*
G37*
G36*
G01*
X125405000Y-89772500D02*
X125405000Y-89427500D01*
G75*
G02*
X125552500Y-89280000I147500J0D01*
G01*
X125847500Y-89280000D01*
G75*
G02*
X125995000Y-89427500I0J-147500D01*
G01*
X125995000Y-89772500D01*
G75*
G02*
X125847500Y-89920000I-147500J0D01*
G01*
X125552500Y-89920000D01*
G75*
G02*
X125405000Y-89772500I0J147500D01*
G01*
G37*
G36*
G01*
X124435000Y-89772500D02*
X124435000Y-89427500D01*
G75*
G02*
X124582500Y-89280000I147500J0D01*
G01*
X124877500Y-89280000D01*
G75*
G02*
X125025000Y-89427500I0J-147500D01*
G01*
X125025000Y-89772500D01*
G75*
G02*
X124877500Y-89920000I-147500J0D01*
G01*
X124582500Y-89920000D01*
G75*
G02*
X124435000Y-89772500I0J147500D01*
G01*
G37*
G36*
G01*
X121605000Y-87472500D02*
X121605000Y-87127500D01*
G75*
G02*
X121752500Y-86980000I147500J0D01*
G01*
X122047500Y-86980000D01*
G75*
G02*
X122195000Y-87127500I0J-147500D01*
G01*
X122195000Y-87472500D01*
G75*
G02*
X122047500Y-87620000I-147500J0D01*
G01*
X121752500Y-87620000D01*
G75*
G02*
X121605000Y-87472500I0J147500D01*
G01*
G37*
G36*
G01*
X120635000Y-87472500D02*
X120635000Y-87127500D01*
G75*
G02*
X120782500Y-86980000I147500J0D01*
G01*
X121077500Y-86980000D01*
G75*
G02*
X121225000Y-87127500I0J-147500D01*
G01*
X121225000Y-87472500D01*
G75*
G02*
X121077500Y-87620000I-147500J0D01*
G01*
X120782500Y-87620000D01*
G75*
G02*
X120635000Y-87472500I0J147500D01*
G01*
G37*
G36*
G01*
X117390000Y-86572500D02*
X117390000Y-86227500D01*
G75*
G02*
X117537500Y-86080000I147500J0D01*
G01*
X117832500Y-86080000D01*
G75*
G02*
X117980000Y-86227500I0J-147500D01*
G01*
X117980000Y-86572500D01*
G75*
G02*
X117832500Y-86720000I-147500J0D01*
G01*
X117537500Y-86720000D01*
G75*
G02*
X117390000Y-86572500I0J147500D01*
G01*
G37*
G36*
G01*
X116420000Y-86572500D02*
X116420000Y-86227500D01*
G75*
G02*
X116567500Y-86080000I147500J0D01*
G01*
X116862500Y-86080000D01*
G75*
G02*
X117010000Y-86227500I0J-147500D01*
G01*
X117010000Y-86572500D01*
G75*
G02*
X116862500Y-86720000I-147500J0D01*
G01*
X116567500Y-86720000D01*
G75*
G02*
X116420000Y-86572500I0J147500D01*
G01*
G37*
M02*
