M48
; DRILL file {KiCad (5.1.8)-1} date 03/05/21 20:41:01
; FORMAT={-:-/ absolute / metric / decimal}
; #@! TF.CreationDate,2021-03-05T20:41:01-08:00
; #@! TF.GenerationSoftware,Kicad,Pcbnew,(5.1.8)-1
; #@! TF.FileFunction,Plated,1,2,PTH
FMAT,2
METRIC
T1C0.300
%
G90
G05
T1
X58.3Y-52.6
X59.4Y-57.3
X61.9Y-55.2
X61.9Y-56.2
X62.1Y-53.8
X64.0Y-55.7
X104.3Y-102.5
X104.3Y-104.0
X107.2Y-87.3
X108.64Y-88.57
X108.9Y-109.4
X109.4Y-84.7
X109.5Y-90.5
X109.5Y-114.5
X110.8Y-120.6
X112.1Y-110.1
X112.5Y-125.918
X112.77Y-86.43
X112.9Y-115.0
X113.4Y-101.4
X113.4Y-131.2
X113.4Y-137.7
X113.6Y-150.2
X114.2Y-121.1
X114.3Y-143.7
X114.5Y-97.7
X115.5Y-126.6
X115.9Y-85.8
X116.5Y-131.7
X116.5Y-138.1
X116.5Y-150.8
X117.6Y-144.3
X118.6Y-86.0
X120.0Y-86.8
X123.1Y-87.3
X123.8Y-89.0
X125.4Y-157.5
X126.8Y-89.6
X127.0Y-124.0
X127.8Y-91.3
X128.3Y-158.0
X128.5Y-150.9
X129.3Y-143.1
X130.1Y-98.0
X130.7Y-91.8
X131.5Y-103.0
X131.8Y-151.5
X132.0Y-136.0
X132.6Y-129.8
X132.7Y-143.7
X132.8Y-109.0
X133.2Y-98.6
X133.2Y-123.7
X133.4Y-113.8
X134.1Y-118.2
X134.7Y-103.6
X135.0Y-136.6
X135.9Y-130.4
X136.3Y-109.5
X136.4Y-124.2
X136.8Y-114.5
X136.8Y-121.8
X137.2Y-118.9
X138.0Y-94.0
X138.7Y-137.9
X141.2Y-131.3
X141.4Y-118.8
X141.8Y-111.9
X141.8Y-138.6
X142.2Y-125.1
X144.2Y-113.7
X144.5Y-119.4
X144.9Y-131.9
X145.7Y-125.8
X164.0Y-113.0
X187.9Y-74.1
X189.6Y-59.1
X195.397Y-62.183
X195.565Y-69.765
X196.806Y-61.096
X197.528Y-60.752
X197.837Y-67.493
X198.891Y-65.802
X199.0Y-58.1
X202.3Y-54.4
X202.9Y-57.5
X209.1Y-45.0
T0
M30
