%FSLAX45Y45*%
G04 Gerber Fmt 4.5, Leading zero omitted, Abs format (unit mm)*
G04 Created by KiCad (PCBNEW (5.1.8)-1) date 2021-03-05 20:41:20*
%MOMM*%
%LPD*%
G01*
G04 APERTURE LIST*
%TA.AperFunction,Profile*%
%ADD10C,0.200000*%
%TD*%
%ADD11C,0.200000*%
%ADD12C,0.300000*%
G04 APERTURE END LIST*
D10*
X1308100Y1062300D02*
X1290000Y1051800D01*
X29289500Y1062300D02*
X29269600Y1068700D01*
X29307600Y1051800D02*
X29289500Y1062300D01*
X29348300Y-20939600D02*
X29348300Y981400D01*
X29323100Y1037800D02*
X29307600Y1051800D01*
X29343900Y1001800D02*
X29335400Y1020900D01*
X29269600Y1068700D02*
X29248800Y1070900D01*
X29335400Y1020900D02*
X29323100Y1037800D01*
X29248800Y1070900D02*
X1348800Y1070900D01*
X29348300Y981400D02*
X29343900Y1001800D01*
X1328000Y1068700D02*
X1308100Y1062300D01*
X29343900Y-20960000D02*
X29348300Y-20939600D01*
X1348800Y1070900D02*
X1328000Y1068700D01*
X1274500Y-20996000D02*
X1290000Y-21010000D01*
X1249300Y981400D02*
X1249300Y-20939600D01*
X29307600Y-21010000D02*
X29323100Y-20996000D01*
X1262200Y-20979100D02*
X1274500Y-20996000D01*
X29323100Y-20996000D02*
X29335400Y-20979100D01*
X1290000Y1051800D02*
X1274500Y1037800D01*
X1253700Y1001800D02*
X1249300Y981400D01*
X29269600Y-21026900D02*
X29289500Y-21020500D01*
X1348800Y-21029100D02*
X29248800Y-21029100D01*
X1253700Y-20960000D02*
X1262200Y-20979100D01*
X1308100Y-21020500D02*
X1328000Y-21026900D01*
X1274500Y1037800D02*
X1262200Y1020900D01*
X1262200Y1020900D02*
X1253700Y1001800D01*
X29335400Y-20979100D02*
X29343900Y-20960000D01*
X29289500Y-21020500D02*
X29307600Y-21010000D01*
X29248800Y-21029100D02*
X29269600Y-21026900D01*
X1328000Y-21026900D02*
X1348800Y-21029100D01*
X1249300Y-20939600D02*
X1253700Y-20960000D01*
X1290000Y-21010000D02*
X1308100Y-21020500D01*
D11*
X5815000Y-5245000D02*
X5845000Y-5275000D01*
X5845000Y-5245000D02*
X5815000Y-5275000D01*
X5925000Y-5715000D02*
X5955000Y-5745000D01*
X5955000Y-5715000D02*
X5925000Y-5745000D01*
X6175000Y-5505000D02*
X6205000Y-5535000D01*
X6205000Y-5505000D02*
X6175000Y-5535000D01*
X6175000Y-5605000D02*
X6205000Y-5635000D01*
X6205000Y-5605000D02*
X6175000Y-5635000D01*
X6195000Y-5365000D02*
X6225000Y-5395000D01*
X6225000Y-5365000D02*
X6195000Y-5395000D01*
X6385000Y-5555000D02*
X6415000Y-5585000D01*
X6415000Y-5555000D02*
X6385000Y-5585000D01*
X10415000Y-10235000D02*
X10445000Y-10265000D01*
X10445000Y-10235000D02*
X10415000Y-10265000D01*
X10415000Y-10385000D02*
X10445000Y-10415000D01*
X10445000Y-10385000D02*
X10415000Y-10415000D01*
X10705000Y-8715000D02*
X10735000Y-8745000D01*
X10735000Y-8715000D02*
X10705000Y-8745000D01*
X10849000Y-8842000D02*
X10879000Y-8872000D01*
X10879000Y-8842000D02*
X10849000Y-8872000D01*
X10875000Y-10925000D02*
X10905000Y-10955000D01*
X10905000Y-10925000D02*
X10875000Y-10955000D01*
X10925000Y-8455000D02*
X10955000Y-8485000D01*
X10955000Y-8455000D02*
X10925000Y-8485000D01*
X10935000Y-9035000D02*
X10965000Y-9065000D01*
X10965000Y-9035000D02*
X10935000Y-9065000D01*
X10935000Y-11435000D02*
X10965000Y-11465000D01*
X10965000Y-11435000D02*
X10935000Y-11465000D01*
X11065000Y-12045000D02*
X11095000Y-12075000D01*
X11095000Y-12045000D02*
X11065000Y-12075000D01*
X11195000Y-10995000D02*
X11225000Y-11025000D01*
X11225000Y-10995000D02*
X11195000Y-11025000D01*
X11235000Y-12576771D02*
X11265000Y-12606771D01*
X11265000Y-12576771D02*
X11235000Y-12606771D01*
X11262000Y-8628000D02*
X11292000Y-8658000D01*
X11292000Y-8628000D02*
X11262000Y-8658000D01*
X11275000Y-11485000D02*
X11305000Y-11515000D01*
X11305000Y-11485000D02*
X11275000Y-11515000D01*
X11325000Y-10125000D02*
X11355000Y-10155000D01*
X11355000Y-10125000D02*
X11325000Y-10155000D01*
X11325000Y-13105000D02*
X11355000Y-13135000D01*
X11355000Y-13105000D02*
X11325000Y-13135000D01*
X11325000Y-13755000D02*
X11355000Y-13785000D01*
X11355000Y-13755000D02*
X11325000Y-13785000D01*
X11345000Y-15005000D02*
X11375000Y-15035000D01*
X11375000Y-15005000D02*
X11345000Y-15035000D01*
X11405000Y-12095000D02*
X11435000Y-12125000D01*
X11435000Y-12095000D02*
X11405000Y-12125000D01*
X11415000Y-14355000D02*
X11445000Y-14385000D01*
X11445000Y-14355000D02*
X11415000Y-14385000D01*
X11435000Y-9755000D02*
X11465000Y-9785000D01*
X11465000Y-9755000D02*
X11435000Y-9785000D01*
X11535000Y-12645000D02*
X11565000Y-12675000D01*
X11565000Y-12645000D02*
X11535000Y-12675000D01*
X11575000Y-8565000D02*
X11605000Y-8595000D01*
X11605000Y-8565000D02*
X11575000Y-8595000D01*
X11635000Y-13155000D02*
X11665000Y-13185000D01*
X11665000Y-13155000D02*
X11635000Y-13185000D01*
X11635000Y-13795000D02*
X11665000Y-13825000D01*
X11665000Y-13795000D02*
X11635000Y-13825000D01*
X11635000Y-15065000D02*
X11665000Y-15095000D01*
X11665000Y-15065000D02*
X11635000Y-15095000D01*
X11745000Y-14415000D02*
X11775000Y-14445000D01*
X11775000Y-14415000D02*
X11745000Y-14445000D01*
X11845000Y-8585000D02*
X11875000Y-8615000D01*
X11875000Y-8585000D02*
X11845000Y-8615000D01*
X11985000Y-8665000D02*
X12015000Y-8695000D01*
X12015000Y-8665000D02*
X11985000Y-8695000D01*
X12295000Y-8715000D02*
X12325000Y-8745000D01*
X12325000Y-8715000D02*
X12295000Y-8745000D01*
X12365000Y-8885000D02*
X12395000Y-8915000D01*
X12395000Y-8885000D02*
X12365000Y-8915000D01*
X12525000Y-15735000D02*
X12555000Y-15765000D01*
X12555000Y-15735000D02*
X12525000Y-15765000D01*
X12665000Y-8945000D02*
X12695000Y-8975000D01*
X12695000Y-8945000D02*
X12665000Y-8975000D01*
X12685000Y-12385000D02*
X12715000Y-12415000D01*
X12715000Y-12385000D02*
X12685000Y-12415000D01*
X12765000Y-9115000D02*
X12795000Y-9145000D01*
X12795000Y-9115000D02*
X12765000Y-9145000D01*
X12815000Y-15785000D02*
X12845000Y-15815000D01*
X12845000Y-15785000D02*
X12815000Y-15815000D01*
X12835000Y-15075000D02*
X12865000Y-15105000D01*
X12865000Y-15075000D02*
X12835000Y-15105000D01*
X12915000Y-14295000D02*
X12945000Y-14325000D01*
X12945000Y-14295000D02*
X12915000Y-14325000D01*
X12995000Y-9785000D02*
X13025000Y-9815000D01*
X13025000Y-9785000D02*
X12995000Y-9815000D01*
X13055000Y-9165000D02*
X13085000Y-9195000D01*
X13085000Y-9165000D02*
X13055000Y-9195000D01*
X13135000Y-10285000D02*
X13165000Y-10315000D01*
X13165000Y-10285000D02*
X13135000Y-10315000D01*
X13165000Y-15135000D02*
X13195000Y-15165000D01*
X13195000Y-15135000D02*
X13165000Y-15165000D01*
X13185000Y-13585000D02*
X13215000Y-13615000D01*
X13215000Y-13585000D02*
X13185000Y-13615000D01*
X13245000Y-12965000D02*
X13275000Y-12995000D01*
X13275000Y-12965000D02*
X13245000Y-12995000D01*
X13255000Y-14355000D02*
X13285000Y-14385000D01*
X13285000Y-14355000D02*
X13255000Y-14385000D01*
X13265000Y-10885000D02*
X13295000Y-10915000D01*
X13295000Y-10885000D02*
X13265000Y-10915000D01*
X13305000Y-9845000D02*
X13335000Y-9875000D01*
X13335000Y-9845000D02*
X13305000Y-9875000D01*
X13305000Y-12355000D02*
X13335000Y-12385000D01*
X13335000Y-12355000D02*
X13305000Y-12385000D01*
X13325000Y-11365000D02*
X13355000Y-11395000D01*
X13355000Y-11365000D02*
X13325000Y-11395000D01*
X13395000Y-11805000D02*
X13425000Y-11835000D01*
X13425000Y-11805000D02*
X13395000Y-11835000D01*
X13455000Y-10345000D02*
X13485000Y-10375000D01*
X13485000Y-10345000D02*
X13455000Y-10375000D01*
X13485000Y-13645000D02*
X13515000Y-13675000D01*
X13515000Y-13645000D02*
X13485000Y-13675000D01*
X13575000Y-13025000D02*
X13605000Y-13055000D01*
X13605000Y-13025000D02*
X13575000Y-13055000D01*
X13615000Y-10935000D02*
X13645000Y-10965000D01*
X13645000Y-10935000D02*
X13615000Y-10965000D01*
X13625000Y-12405000D02*
X13655000Y-12435000D01*
X13655000Y-12405000D02*
X13625000Y-12435000D01*
X13665000Y-11435000D02*
X13695000Y-11465000D01*
X13695000Y-11435000D02*
X13665000Y-11465000D01*
X13665000Y-12165000D02*
X13695000Y-12195000D01*
X13695000Y-12165000D02*
X13665000Y-12195000D01*
X13705000Y-11875000D02*
X13735000Y-11905000D01*
X13735000Y-11875000D02*
X13705000Y-11905000D01*
X13785000Y-9385000D02*
X13815000Y-9415000D01*
X13815000Y-9385000D02*
X13785000Y-9415000D01*
X13855000Y-13775000D02*
X13885000Y-13805000D01*
X13885000Y-13775000D02*
X13855000Y-13805000D01*
X14105000Y-13115000D02*
X14135000Y-13145000D01*
X14135000Y-13115000D02*
X14105000Y-13145000D01*
X14125000Y-11865000D02*
X14155000Y-11895000D01*
X14155000Y-11865000D02*
X14125000Y-11895000D01*
X14165000Y-11175000D02*
X14195000Y-11205000D01*
X14195000Y-11175000D02*
X14165000Y-11205000D01*
X14165000Y-13845000D02*
X14195000Y-13875000D01*
X14195000Y-13845000D02*
X14165000Y-13875000D01*
X14205000Y-12495000D02*
X14235000Y-12525000D01*
X14235000Y-12495000D02*
X14205000Y-12525000D01*
X14405000Y-11355000D02*
X14435000Y-11385000D01*
X14435000Y-11355000D02*
X14405000Y-11385000D01*
X14435000Y-11925000D02*
X14465000Y-11955000D01*
X14465000Y-11925000D02*
X14435000Y-11955000D01*
X14475000Y-13175000D02*
X14505000Y-13205000D01*
X14505000Y-13175000D02*
X14475000Y-13205000D01*
X14555000Y-12565000D02*
X14585000Y-12595000D01*
X14585000Y-12565000D02*
X14555000Y-12595000D01*
X16385000Y-11285000D02*
X16415000Y-11315000D01*
X16415000Y-11285000D02*
X16385000Y-11315000D01*
X18775000Y-7395000D02*
X18805000Y-7425000D01*
X18805000Y-7395000D02*
X18775000Y-7425000D01*
X18945000Y-5895000D02*
X18975000Y-5925000D01*
X18975000Y-5895000D02*
X18945000Y-5925000D01*
X19524725Y-6203349D02*
X19554725Y-6233349D01*
X19554725Y-6203349D02*
X19524725Y-6233349D01*
X19541477Y-6961477D02*
X19571477Y-6991477D01*
X19571477Y-6961477D02*
X19541477Y-6991477D01*
X19665588Y-6094643D02*
X19695588Y-6124643D01*
X19695588Y-6094643D02*
X19665588Y-6124643D01*
X19737787Y-6060182D02*
X19767787Y-6090182D01*
X19767787Y-6060182D02*
X19737787Y-6090182D01*
X19768666Y-6734288D02*
X19798666Y-6764288D01*
X19798666Y-6734288D02*
X19768666Y-6764288D01*
X19874071Y-6565242D02*
X19904071Y-6595242D01*
X19904071Y-6565242D02*
X19874071Y-6595242D01*
X19885000Y-5795000D02*
X19915000Y-5825000D01*
X19915000Y-5795000D02*
X19885000Y-5825000D01*
X20215000Y-5425000D02*
X20245000Y-5455000D01*
X20245000Y-5425000D02*
X20215000Y-5455000D01*
X20275000Y-5735000D02*
X20305000Y-5765000D01*
X20305000Y-5735000D02*
X20275000Y-5765000D01*
X20895000Y-4485000D02*
X20925000Y-4515000D01*
X20925000Y-4485000D02*
X20895000Y-4515000D01*
D12*
X1525728Y-21504814D02*
X1525728Y-21204814D01*
X1597157Y-21204814D01*
X1640014Y-21219100D01*
X1668586Y-21247672D01*
X1682871Y-21276243D01*
X1697157Y-21333386D01*
X1697157Y-21376243D01*
X1682871Y-21433386D01*
X1668586Y-21461957D01*
X1640014Y-21490529D01*
X1597157Y-21504814D01*
X1525728Y-21504814D01*
X1825728Y-21504814D02*
X1825728Y-21304814D01*
X1825728Y-21361957D02*
X1840014Y-21333386D01*
X1854300Y-21319100D01*
X1882871Y-21304814D01*
X1911443Y-21304814D01*
X2011443Y-21504814D02*
X2011443Y-21304814D01*
X2011443Y-21204814D02*
X1997157Y-21219100D01*
X2011443Y-21233386D01*
X2025728Y-21219100D01*
X2011443Y-21204814D01*
X2011443Y-21233386D01*
X2197157Y-21504814D02*
X2168586Y-21490529D01*
X2154300Y-21461957D01*
X2154300Y-21204814D01*
X2354300Y-21504814D02*
X2325728Y-21490529D01*
X2311443Y-21461957D01*
X2311443Y-21204814D01*
X2697157Y-21504814D02*
X2697157Y-21204814D01*
X2797157Y-21419100D01*
X2897157Y-21204814D01*
X2897157Y-21504814D01*
X3168586Y-21504814D02*
X3168586Y-21347672D01*
X3154300Y-21319100D01*
X3125728Y-21304814D01*
X3068586Y-21304814D01*
X3040014Y-21319100D01*
X3168586Y-21490529D02*
X3140014Y-21504814D01*
X3068586Y-21504814D01*
X3040014Y-21490529D01*
X3025728Y-21461957D01*
X3025728Y-21433386D01*
X3040014Y-21404814D01*
X3068586Y-21390529D01*
X3140014Y-21390529D01*
X3168586Y-21376243D01*
X3311443Y-21304814D02*
X3311443Y-21604814D01*
X3311443Y-21319100D02*
X3340014Y-21304814D01*
X3397157Y-21304814D01*
X3425728Y-21319100D01*
X3440014Y-21333386D01*
X3454300Y-21361957D01*
X3454300Y-21447672D01*
X3440014Y-21476243D01*
X3425728Y-21490529D01*
X3397157Y-21504814D01*
X3340014Y-21504814D01*
X3311443Y-21490529D01*
X3582871Y-21476243D02*
X3597157Y-21490529D01*
X3582871Y-21504814D01*
X3568586Y-21490529D01*
X3582871Y-21476243D01*
X3582871Y-21504814D01*
X3582871Y-21319100D02*
X3597157Y-21333386D01*
X3582871Y-21347672D01*
X3568586Y-21333386D01*
X3582871Y-21319100D01*
X3582871Y-21347672D01*
X1209300Y-21984100D02*
X1239300Y-22014100D01*
X1239300Y-21984100D02*
X1209300Y-22014100D01*
X1582871Y-21834814D02*
X1611443Y-21834814D01*
X1640014Y-21849100D01*
X1654300Y-21863386D01*
X1668586Y-21891957D01*
X1682871Y-21949100D01*
X1682871Y-22020529D01*
X1668586Y-22077672D01*
X1654300Y-22106243D01*
X1640014Y-22120529D01*
X1611443Y-22134814D01*
X1582871Y-22134814D01*
X1554300Y-22120529D01*
X1540014Y-22106243D01*
X1525728Y-22077672D01*
X1511443Y-22020529D01*
X1511443Y-21949100D01*
X1525728Y-21891957D01*
X1540014Y-21863386D01*
X1554300Y-21849100D01*
X1582871Y-21834814D01*
X1811443Y-22106243D02*
X1825728Y-22120529D01*
X1811443Y-22134814D01*
X1797157Y-22120529D01*
X1811443Y-22106243D01*
X1811443Y-22134814D01*
X1925728Y-21834814D02*
X2111443Y-21834814D01*
X2011443Y-21949100D01*
X2054300Y-21949100D01*
X2082871Y-21963386D01*
X2097157Y-21977672D01*
X2111443Y-22006243D01*
X2111443Y-22077672D01*
X2097157Y-22106243D01*
X2082871Y-22120529D01*
X2054300Y-22134814D01*
X1968586Y-22134814D01*
X1940014Y-22120529D01*
X1925728Y-22106243D01*
X2297157Y-21834814D02*
X2325728Y-21834814D01*
X2354300Y-21849100D01*
X2368586Y-21863386D01*
X2382871Y-21891957D01*
X2397157Y-21949100D01*
X2397157Y-22020529D01*
X2382871Y-22077672D01*
X2368586Y-22106243D01*
X2354300Y-22120529D01*
X2325728Y-22134814D01*
X2297157Y-22134814D01*
X2268586Y-22120529D01*
X2254300Y-22106243D01*
X2240014Y-22077672D01*
X2225728Y-22020529D01*
X2225728Y-21949100D01*
X2240014Y-21891957D01*
X2254300Y-21863386D01*
X2268586Y-21849100D01*
X2297157Y-21834814D01*
X2525728Y-22134814D02*
X2525728Y-21934814D01*
X2525728Y-21963386D02*
X2540014Y-21949100D01*
X2568586Y-21934814D01*
X2611443Y-21934814D01*
X2640014Y-21949100D01*
X2654300Y-21977672D01*
X2654300Y-22134814D01*
X2654300Y-21977672D02*
X2668586Y-21949100D01*
X2697157Y-21934814D01*
X2740014Y-21934814D01*
X2768586Y-21949100D01*
X2782871Y-21977672D01*
X2782871Y-22134814D01*
X2925728Y-22134814D02*
X2925728Y-21934814D01*
X2925728Y-21963386D02*
X2940014Y-21949100D01*
X2968586Y-21934814D01*
X3011443Y-21934814D01*
X3040014Y-21949100D01*
X3054300Y-21977672D01*
X3054300Y-22134814D01*
X3054300Y-21977672D02*
X3068586Y-21949100D01*
X3097157Y-21934814D01*
X3140014Y-21934814D01*
X3168586Y-21949100D01*
X3182871Y-21977672D01*
X3182871Y-22134814D01*
X3768586Y-21820529D02*
X3511443Y-22206243D01*
X4154300Y-21834814D02*
X4182871Y-21834814D01*
X4211443Y-21849100D01*
X4225728Y-21863386D01*
X4240014Y-21891957D01*
X4254300Y-21949100D01*
X4254300Y-22020529D01*
X4240014Y-22077672D01*
X4225728Y-22106243D01*
X4211443Y-22120529D01*
X4182871Y-22134814D01*
X4154300Y-22134814D01*
X4125728Y-22120529D01*
X4111443Y-22106243D01*
X4097157Y-22077672D01*
X4082871Y-22020529D01*
X4082871Y-21949100D01*
X4097157Y-21891957D01*
X4111443Y-21863386D01*
X4125728Y-21849100D01*
X4154300Y-21834814D01*
X4382871Y-22106243D02*
X4397157Y-22120529D01*
X4382871Y-22134814D01*
X4368586Y-22120529D01*
X4382871Y-22106243D01*
X4382871Y-22134814D01*
X4582871Y-21834814D02*
X4611443Y-21834814D01*
X4640014Y-21849100D01*
X4654300Y-21863386D01*
X4668586Y-21891957D01*
X4682871Y-21949100D01*
X4682871Y-22020529D01*
X4668586Y-22077672D01*
X4654300Y-22106243D01*
X4640014Y-22120529D01*
X4611443Y-22134814D01*
X4582871Y-22134814D01*
X4554300Y-22120529D01*
X4540014Y-22106243D01*
X4525728Y-22077672D01*
X4511443Y-22020529D01*
X4511443Y-21949100D01*
X4525728Y-21891957D01*
X4540014Y-21863386D01*
X4554300Y-21849100D01*
X4582871Y-21834814D01*
X4968586Y-22134814D02*
X4797157Y-22134814D01*
X4882871Y-22134814D02*
X4882871Y-21834814D01*
X4854300Y-21877672D01*
X4825728Y-21906243D01*
X4797157Y-21920529D01*
X5082871Y-21863386D02*
X5097157Y-21849100D01*
X5125728Y-21834814D01*
X5197157Y-21834814D01*
X5225728Y-21849100D01*
X5240014Y-21863386D01*
X5254300Y-21891957D01*
X5254300Y-21920529D01*
X5240014Y-21963386D01*
X5068586Y-22134814D01*
X5254300Y-22134814D01*
X5368586Y-21834814D02*
X5368586Y-21891957D01*
X5482871Y-21834814D02*
X5482871Y-21891957D01*
X5925728Y-22249100D02*
X5911443Y-22234814D01*
X5882871Y-22191957D01*
X5868586Y-22163386D01*
X5854300Y-22120529D01*
X5840014Y-22049100D01*
X5840014Y-21991957D01*
X5854300Y-21920529D01*
X5868586Y-21877672D01*
X5882871Y-21849100D01*
X5911443Y-21806243D01*
X5925728Y-21791957D01*
X6082871Y-21963386D02*
X6054300Y-21949100D01*
X6040014Y-21934814D01*
X6025728Y-21906243D01*
X6025728Y-21891957D01*
X6040014Y-21863386D01*
X6054300Y-21849100D01*
X6082871Y-21834814D01*
X6140014Y-21834814D01*
X6168586Y-21849100D01*
X6182871Y-21863386D01*
X6197157Y-21891957D01*
X6197157Y-21906243D01*
X6182871Y-21934814D01*
X6168586Y-21949100D01*
X6140014Y-21963386D01*
X6082871Y-21963386D01*
X6054300Y-21977672D01*
X6040014Y-21991957D01*
X6025728Y-22020529D01*
X6025728Y-22077672D01*
X6040014Y-22106243D01*
X6054300Y-22120529D01*
X6082871Y-22134814D01*
X6140014Y-22134814D01*
X6168586Y-22120529D01*
X6182871Y-22106243D01*
X6197157Y-22077672D01*
X6197157Y-22020529D01*
X6182871Y-21991957D01*
X6168586Y-21977672D01*
X6140014Y-21963386D01*
X6297157Y-21834814D02*
X6497157Y-21834814D01*
X6368586Y-22134814D01*
X6840014Y-22134814D02*
X6840014Y-21834814D01*
X6968586Y-22134814D02*
X6968586Y-21977672D01*
X6954300Y-21949100D01*
X6925728Y-21934814D01*
X6882871Y-21934814D01*
X6854300Y-21949100D01*
X6840014Y-21963386D01*
X7154300Y-22134814D02*
X7125728Y-22120529D01*
X7111443Y-22106243D01*
X7097157Y-22077672D01*
X7097157Y-21991957D01*
X7111443Y-21963386D01*
X7125728Y-21949100D01*
X7154300Y-21934814D01*
X7197157Y-21934814D01*
X7225728Y-21949100D01*
X7240014Y-21963386D01*
X7254300Y-21991957D01*
X7254300Y-22077672D01*
X7240014Y-22106243D01*
X7225728Y-22120529D01*
X7197157Y-22134814D01*
X7154300Y-22134814D01*
X7425728Y-22134814D02*
X7397157Y-22120529D01*
X7382871Y-22091957D01*
X7382871Y-21834814D01*
X7654300Y-22120529D02*
X7625728Y-22134814D01*
X7568586Y-22134814D01*
X7540014Y-22120529D01*
X7525728Y-22091957D01*
X7525728Y-21977672D01*
X7540014Y-21949100D01*
X7568586Y-21934814D01*
X7625728Y-21934814D01*
X7654300Y-21949100D01*
X7668586Y-21977672D01*
X7668586Y-22006243D01*
X7525728Y-22034814D01*
X7782871Y-22120529D02*
X7811443Y-22134814D01*
X7868586Y-22134814D01*
X7897157Y-22120529D01*
X7911443Y-22091957D01*
X7911443Y-22077672D01*
X7897157Y-22049100D01*
X7868586Y-22034814D01*
X7825728Y-22034814D01*
X7797157Y-22020529D01*
X7782871Y-21991957D01*
X7782871Y-21977672D01*
X7797157Y-21949100D01*
X7825728Y-21934814D01*
X7868586Y-21934814D01*
X7897157Y-21949100D01*
X8011443Y-22249100D02*
X8025728Y-22234814D01*
X8054300Y-22191957D01*
X8068586Y-22163386D01*
X8082871Y-22120529D01*
X8097157Y-22049100D01*
X8097157Y-21991957D01*
X8082871Y-21920529D01*
X8068586Y-21877672D01*
X8054300Y-21849100D01*
X8025728Y-21806243D01*
X8011443Y-21791957D01*
M02*
